<?xml version="1.0" encoding="utf-8"?>
<!-- Generator: Adobe Illustrator 19.2.0, SVG Export Plug-In . SVG Version: 6.00 Build 0)  -->
<svg version="1.1" id="Capa_1" xmlns="http://www.w3.org/2000/svg" xmlns:xlink="http://www.w3.org/1999/xlink" x="0px" y="0px"
	 viewBox="0 0 61.8 61.8" style="enable-background:new 0 0 61.8 61.8;" xml:space="preserve">
<g>
	<g>
		<path d="M45.7,49.4c0,0,0,0-0.1,0.1c-4-1.6-8.4-0.4-11.9-3.5s-6.1-8.1-9-11.8c-3.2-4.1-6.5-8.1-9.8-12.1c-2.4-2.8-4.6-6.1-7.6-8.2
			c-0.4-0.8-0.8-1.2-1.5-0.7c-0.3,0.1-0.6,0.3-0.7,0.6c-0.4,0.4-0.9,1.1-1.4,1.9c-3.9,5.8-4.6,10.8-2.4,16.5C3.4,38,3,58.3,3,58.3
			s0.9,1.2,1.8,0.6S3.6,39,5.3,36.7c0,0,7.1-3.9,13.2,9.6c6.1,13.5,9,13.8,13.2,13.8s16.7,0.3,25.8-1.4C66.4,57.2,61,53.8,45.7,49.4
			z M31.9,51.7c-5.5-6.4-18.7-28.4-22-32.9c-0.1-0.1-0.1-0.2-0.2-0.2c1.8,2,3.4,4.3,5,6.2c4,4.8,7.9,9.7,11.7,14.7
			c2.3,2.9,4.2,6.2,7,8.7c3.1,2.7,7.1,1.7,10.6,2.8C41.3,53.1,35.8,56.3,31.9,51.7z"/>
	</g>
</g>
</svg>
